# xmcd
#
# Track frame offsets:
#	150
#	17024
#	33931
#	50713
#	67459
#	79885
#	95052
#	110972
#	125828
#	142457
#	159459
#	171530
#	183276
#	195453
#	207258
#	219334
#	231456
#	243944
#	255235
#	264945
#	273664
#	288014
#
# Disc length: 3998 seconds
#
# Revision: 1
# Processed by: cddbd v1.5.2PL0 Copyright (c) Steve Scherf et al.
# Submitted via: audiograbber 1.83.01
#
DISCID=5a0f9c16
DTITLE=Lee Hazlewood - LEE HAZLEWOOD - The Complete Reprise Recordings (1965-19
DTITLE=68) Part One
DYEAR=1900
DGENRE=Country
TTITLE0=First street blues
TTITLE1=I had a friend
TTITLE2=I'm gonna fly
TTITLE3=Go die big city
TTITLE4=I ain't gonna be
TTITLE5=Have you made any new bombs today
TTITLE6=Everybody calls me something
TTITLE7=Save your vote for Clarence Mudd
TTITLE8=I might break even
TTITLE9=Just bluesin'
TTITLE10=Friday's child
TTITLE11=Hutchinson jail
TTITLE12=By the way
TTITLE13=Four kinds of lonely
TTITLE14=Houston
TTITLE15=Sally was a good old girl
TTITLE16=Since you're gone
TTITLE17=A real live fool
TTITLE18=I'm blue
TTITLE19=The fool
TTITLE20=That old freight train
TTITLE21=Me and Charlie
EXTD=
EXTT0=
EXTT1=
EXTT2=
EXTT3=
EXTT4=
EXTT5=
EXTT6=
EXTT7=
EXTT8=
EXTT9=
EXTT10=
EXTT11=
EXTT12=
EXTT13=
EXTT14=
EXTT15=
EXTT16=
EXTT17=
EXTT18=
EXTT19=
EXTT20=
EXTT21=
PLAYORDER=
